# xmcd CD database file generated by OrangeCD 6.5
#
# Track frame offsets:
#	150
#	13111
#	27452
#	42150
#	54583
#	72006
#	90277
#	106363
#	121826
#	134958
#	154420
#	168259
#	192265
#	212594
#	227588
#	247211
#	260403
#
# Disc length: 3645 seconds
#
# Revision: 1
# Processed by: cddbd v1.5.2PL0 Copyright (c) Steve Scherf et al.
# Submitted via: OrangeCD 6.5
#
DISCID=ed0e3b11
DTITLE=Alison Krauss - Windy City
DYEAR=2017
DGENRE=Contemporary Country
TTITLE0=Losing You
TTITLE1=It's Goodbye And So Long
TTITLE2=Windy City
TTITLE3=I Never Cared For You
TTITLE4=River In The Rain
TTITLE5=Dream Of Me
TTITLE6=Gentle On My Mind
TTITLE7=All Alone Am I
TTITLE8=Poison Love
TTITLE9=You Don't Know Me
TTITLE10=Alison Krauss and Jamey Johnson - Make The World Go Away
TTITLE11=Till I Gain Control Again
TTITLE12=Angel Flying Too Close To The Ground
TTITLE13=Windy City
TTITLE14=River In The Rain
TTITLE15=Losing You
TTITLE16=I Never Cared For You
EXTD=
EXTT0=
EXTT1=
EXTT2=
EXTT3=
EXTT4=
EXTT5=
EXTT6=
EXTT7=
EXTT8=
EXTT9=
EXTT10=
EXTT11=
EXTT12=
EXTT13=
EXTT14=
EXTT15=
EXTT16=
PLAYORDER=
